<svg height="143pt" preserveAspectRatio="xMidYMid meet" viewBox="0 0 164 143" width="164pt" xmlns="http://www.w3.org/2000/svg"><path d="m754 1371c-22-13-59-69-132-198-56-98-102-182-102-185s30-23 67-44c36-22 104-74 150-118 167-157 268-359 297-588l6-48h-69-69l-12 72c-32 190-130 369-262 481-57 47-178 131-182 125-11-15-166-287-171-300-5-12 3-21 32-34 94-45 206-199 220-304l6-40h-155c-120 0-158 3-167 14s-2 30 34 90c25 42 45 79 45 81 0 9-90 56-97 52-4-3-30-48-57-100-54-105-56-139-14-192 39-50 68-55 308-55h220v63c0 144-53 268-161 382l-71 74 32 56c17 30 36 55 42 55s48-38 94-84c68-69 90-100 127-177 51-107 77-208 77-303v-66h180 180v59c0 197-68 418-182 591-53 81-168 202-242 255-30 22-56 43-56 47 0 11 120 210 140 231 16 17 17 17 32 0 8-10 149-249 312-532 234-405 294-516 285-527-8-10-35-14-85-14h-74v-56-56l94 4c108 4 138 18 170 83 15 31 17 45 10 74-6 20-149 279-319 575-239 416-316 543-340 557-39 24-102 24-141 0z" transform="matrix(.1 0 0 -.1 0 143)"/></svg>